<svg width="357" height="328" viewBox="0 0 357 328" fill="none" xmlns="http://www.w3.org/2000/svg">
<g filter="url(#filter0_f_2_55)">
<circle cx="76.6203" cy="76.6203" r="76.6203" transform="matrix(-1 0 0 1 312.166 44)" fill="#FFC701" fill-opacity="0.5"/>
</g>
<circle cx="74.1083" cy="74.1083" r="73.1083" transform="matrix(-1 0 0 1 309.654 49.0241)" fill="url(#paint0_linear_2_55)" stroke="url(#paint1_linear_2_55)" stroke-width="2"/>
<mask id="mask0_2_55" style="mask-type:alpha" maskUnits="userSpaceOnUse" x="161" y="90" width="149" height="108">
<path d="M161.437 123.133C161.437 164.061 194.617 197.241 235.546 197.241C276.475 197.241 309.654 164.061 309.654 123.133C309.654 82.2037 282.127 91.7307 241.198 91.7307C200.269 91.7307 161.437 82.2037 161.437 123.133Z" fill="url(#paint2_linear_2_55)"/>
</mask>
<g mask="url(#mask0_2_55)">
<g filter="url(#filter1_f_2_55)">
<path fill-rule="evenodd" clip-rule="evenodd" d="M122.499 258.788C122.499 288.618 146.68 312.799 176.51 312.799C176.719 312.799 176.929 312.798 177.138 312.796V312.799H366.805L366.802 312.796C367.012 312.799 367.223 312.8 367.433 312.8C397.263 312.8 421.444 288.618 421.444 258.789C421.444 228.959 397.263 204.778 367.433 204.778C341.721 204.778 320.205 222.744 314.755 246.808L296.465 223.618L239.313 204.777H177.138V204.781C176.929 204.778 176.719 204.777 176.51 204.777C146.68 204.777 122.499 228.959 122.499 258.788Z" fill="#E18700"/>
</g>
</g>
<g filter="url(#filter2_bd_2_55)">
<mask id="path-5-inside-1_2_55" fill="white">
<path fill-rule="evenodd" clip-rule="evenodd" d="M110.488 262.997C110.337 262.999 110.185 263 110.033 263C88.4758 263 71 245.524 71 223.967C71 202.409 88.4758 184.933 110.033 184.933C110.185 184.933 110.337 184.934 110.488 184.936V184.933H120.571C120.207 182.262 120.019 179.535 120.019 176.763C120.019 143.675 146.842 116.852 179.93 116.852C213.019 116.852 239.842 143.675 239.842 176.763C239.842 179.886 239.603 182.952 239.143 185.945C241.992 185.283 244.961 184.933 248.011 184.933C269.569 184.933 287.045 202.409 287.045 223.967C287.045 245.524 269.569 263 248.011 263C247.859 263 247.708 262.999 247.556 262.997L247.558 263H110.488V262.997Z"/>
</mask>
<path fill-rule="evenodd" clip-rule="evenodd" d="M110.488 262.997C110.337 262.999 110.185 263 110.033 263C88.4758 263 71 245.524 71 223.967C71 202.409 88.4758 184.933 110.033 184.933C110.185 184.933 110.337 184.934 110.488 184.936V184.933H120.571C120.207 182.262 120.019 179.535 120.019 176.763C120.019 143.675 146.842 116.852 179.93 116.852C213.019 116.852 239.842 143.675 239.842 176.763C239.842 179.886 239.603 182.952 239.143 185.945C241.992 185.283 244.961 184.933 248.011 184.933C269.569 184.933 287.045 202.409 287.045 223.967C287.045 245.524 269.569 263 248.011 263C247.859 263 247.708 262.999 247.556 262.997L247.558 263H110.488V262.997Z" fill="url(#paint3_linear_2_55)" shape-rendering="crispEdges"/>
<path d="M110.488 262.998L110.465 260.998C111 260.992 111.514 261.2 111.894 261.575C112.274 261.951 112.488 262.463 112.488 262.998H110.488ZM110.488 184.936H112.488C112.488 185.471 112.274 185.983 111.894 186.358C111.514 186.734 111 186.942 110.465 186.936L110.488 184.936ZM110.488 184.934H108.488C108.488 183.829 109.384 182.934 110.488 182.934V184.934ZM120.571 184.934L122.553 184.663C122.631 185.236 122.458 185.814 122.078 186.249C121.698 186.684 121.149 186.934 120.571 186.934V184.934ZM239.143 185.946L239.595 187.894C238.949 188.044 238.27 187.864 237.783 187.412C237.296 186.961 237.065 186.298 237.166 185.641L239.143 185.946ZM247.556 262.998L245.987 264.237C245.509 263.632 245.421 262.807 245.761 262.115C246.101 261.424 246.808 260.989 247.579 260.998L247.556 262.998ZM247.558 263L249.128 261.761C249.603 262.362 249.692 263.182 249.358 263.872C249.024 264.562 248.325 265 247.558 265V263ZM110.488 263V265C109.384 265 108.488 264.105 108.488 263H110.488ZM110.511 264.997C110.352 264.999 110.193 265 110.033 265V261C110.178 261 110.322 260.999 110.465 260.998L110.511 264.997ZM110.033 265C87.3713 265 69 246.629 69 223.967H73C73 244.42 89.5804 261 110.033 261V265ZM69 223.967C69 201.305 87.3713 182.934 110.033 182.934V186.934C89.5804 186.934 73 203.514 73 223.967H69ZM110.033 182.934C110.193 182.934 110.352 182.934 110.511 182.936L110.465 186.936C110.322 186.934 110.178 186.934 110.033 186.934V182.934ZM112.488 184.934V184.936H108.488V184.934H112.488ZM120.571 186.934H110.488V182.934H120.571V186.934ZM118.59 185.204C118.213 182.443 118.019 179.625 118.019 176.763H122.019C122.019 179.444 122.201 182.081 122.553 184.663L118.59 185.204ZM118.019 176.763C118.019 142.571 145.738 114.852 179.93 114.852V118.852C147.947 118.852 122.019 144.78 122.019 176.763H118.019ZM179.93 114.852C214.123 114.852 241.842 142.571 241.842 176.763H237.842C237.842 144.78 211.914 118.852 179.93 118.852V114.852ZM241.842 176.763C241.842 179.988 241.595 183.156 241.119 186.25L237.166 185.641C237.611 182.748 237.842 179.784 237.842 176.763H241.842ZM238.69 183.997C241.687 183.301 244.807 182.934 248.011 182.934V186.934C245.114 186.934 242.297 187.266 239.595 187.894L238.69 183.997ZM248.011 182.934C270.673 182.934 289.045 201.305 289.045 223.967H285.045C285.045 203.514 268.464 186.934 248.011 186.934V182.934ZM289.045 223.967C289.045 246.629 270.673 265 248.011 265V261C268.464 261 285.045 244.42 285.045 223.967H289.045ZM248.011 265C247.852 265 247.693 264.999 247.533 264.997L247.579 260.998C247.723 260.999 247.867 261 248.011 261V265ZM245.989 264.24L245.987 264.237L249.126 261.758L249.128 261.761L245.989 264.24ZM110.488 261H247.558V265H110.488V261ZM112.488 262.998V263H108.488V262.998H112.488Z" fill="url(#paint4_linear_2_55)" mask="url(#path-5-inside-1_2_55)"/>
</g>
<defs>
<filter id="filter0_f_2_55" x="114.925" y="0" width="241.241" height="241.241" filterUnits="userSpaceOnUse" color-interpolation-filters="sRGB">
<feFlood flood-opacity="0" result="BackgroundImageFix"/>
<feBlend mode="normal" in="SourceGraphic" in2="BackgroundImageFix" result="shape"/>
<feGaussianBlur stdDeviation="22" result="effect1_foregroundBlur_2_55"/>
</filter>
<filter id="filter1_f_2_55" x="108.499" y="190.777" width="326.945" height="136.023" filterUnits="userSpaceOnUse" color-interpolation-filters="sRGB">
<feFlood flood-opacity="0" result="BackgroundImageFix"/>
<feBlend mode="normal" in="SourceGraphic" in2="BackgroundImageFix" result="shape"/>
<feGaussianBlur stdDeviation="7" result="effect1_foregroundBlur_2_55"/>
</filter>
<filter id="filter2_bd_2_55" x="0" y="81.8518" width="316.045" height="246.148" filterUnits="userSpaceOnUse" color-interpolation-filters="sRGB">
<feFlood flood-opacity="0" result="BackgroundImageFix"/>
<feGaussianBlur in="BackgroundImageFix" stdDeviation="7"/>
<feComposite in2="SourceAlpha" operator="in" result="effect1_backgroundBlur_2_55"/>
<feColorMatrix in="SourceAlpha" type="matrix" values="0 0 0 0 0 0 0 0 0 0 0 0 0 0 0 0 0 0 127 0" result="hardAlpha"/>
<feOffset dx="-21" dy="15"/>
<feGaussianBlur stdDeviation="25"/>
<feComposite in2="hardAlpha" operator="out"/>
<feColorMatrix type="matrix" values="0 0 0 0 0.113438 0 0 0 0 0.148981 0 0 0 0 0.275 0 0 0 0.25 0"/>
<feBlend mode="normal" in2="effect1_backgroundBlur_2_55" result="effect2_dropShadow_2_55"/>
<feBlend mode="normal" in="SourceGraphic" in2="effect2_dropShadow_2_55" result="shape"/>
</filter>
<linearGradient id="paint0_linear_2_55" x1="74.1083" y1="0" x2="74.1083" y2="148.217" gradientUnits="userSpaceOnUse">
<stop stop-color="#FFE600"/>
<stop offset="1" stop-color="#FF7A00"/>
</linearGradient>
<linearGradient id="paint1_linear_2_55" x1="74.1083" y1="0" x2="74.1083" y2="148.217" gradientUnits="userSpaceOnUse">
<stop stop-color="white"/>
<stop offset="1" stop-color="white" stop-opacity="0"/>
</linearGradient>
<linearGradient id="paint2_linear_2_55" x1="235.546" y1="49.0243" x2="235.546" y2="197.241" gradientUnits="userSpaceOnUse">
<stop stop-color="#FFD600"/>
<stop offset="1" stop-color="#FF7A00"/>
</linearGradient>
<linearGradient id="paint3_linear_2_55" x1="168.974" y1="121.248" x2="168.974" y2="279.514" gradientUnits="userSpaceOnUse">
<stop stop-color="white"/>
<stop offset="1" stop-color="white" stop-opacity="0"/>
</linearGradient>
<linearGradient id="paint4_linear_2_55" x1="179.022" y1="116.852" x2="179.022" y2="263" gradientUnits="userSpaceOnUse">
<stop stop-color="white"/>
<stop offset="1" stop-color="white" stop-opacity="0"/>
</linearGradient>
</defs>
</svg>
